<?xml version="1.0" standalone="no"?>
<!DOCTYPE svg PUBLIC "-//W3C//DTD SVG 20010904//EN"
 "http://www.w3.org/TR/2001/REC-SVG-20010904/DTD/svg10.dtd">
<svg version="1.0" xmlns="http://www.w3.org/2000/svg"
 width="240.000000pt" height="240.000000pt" viewBox="0 0 240.000000 240.000000"
 preserveAspectRatio="xMidYMid meet">
<metadata>
Created by potrace 1.14, written by Peter Selinger 2001-2017
</metadata>
<g transform="translate(0.000000,240.000000) scale(0.100000,-0.100000)"
fill="#000000" stroke="none">
<path d="M1900 2339 c-80 -16 -245 -68 -282 -89 -10 -5 -25 -7 -34 -3 -10 4
-22 0 -28 -8 -6 -8 -29 -23 -51 -33 -73 -35 -274 -176 -340 -239 -7 -6 -35
-33 -62 -59 -27 -25 -62 -61 -77 -78 -14 -18 -32 -33 -39 -34 -23 -3 -37 -17
-37 -37 0 -11 -25 -56 -56 -98 l-56 -78 -81 -1 c-84 0 -182 -8 -229 -18 l-27
-5 20 40 c48 99 -2 138 -101 78 -43 -26 -46 -29 -111 -108 -30 -35 -61 -73
-71 -84 -70 -83 -188 -230 -188 -234 1 -12 26 -38 46 -49 18 -10 28 -4 83 47
67 61 78 64 196 63 46 0 153 -15 163 -22 1 -2 5 -3 10 -4 30 -6 122 -57 122
-68 0 -7 -4 -27 -9 -45 -5 -18 -12 -60 -16 -95 -6 -55 -11 -68 -43 -100 -20
-20 -43 -44 -50 -53 -87 -105 -112 -131 -128 -132 -81 -7 -202 -118 -256 -237
-21 -46 -16 -58 22 -51 39 7 43 -5 22 -57 -33 -77 -48 -164 -43 -254 2 -34 29
-37 58 -7 29 28 109 67 160 78 31 6 31 6 28 -32 -2 -41 9 -91 24 -106 7 -7 16
0 27 19 21 37 74 75 135 98 51 18 118 78 145 129 22 41 26 152 8 188 -12 23
-11 29 2 40 9 8 18 9 22 3 4 -5 19 -15 33 -21 24 -10 30 -8 69 32 43 44 43 44
108 41 60 -2 167 14 191 28 16 10 59 -91 82 -194 13 -59 16 -204 5 -282 -4
-27 -18 -64 -31 -85 -24 -35 -24 -37 -8 -56 37 -41 47 -39 109 19 237 224 288
270 300 277 8 4 14 14 14 21 0 8 6 19 14 25 8 7 21 32 29 56 13 37 13 46 1 63
-17 24 -62 21 -110 -9 -41 -25 -47 -24 -40 4 12 48 19 125 20 226 l1 104 85
58 c46 33 95 59 107 59 14 0 23 6 23 15 0 8 39 54 88 103 123 124 245 289 312
422 12 25 31 53 41 63 10 9 16 23 13 30 -2 7 9 51 26 97 55 151 79 272 76 390
-2 113 -18 160 -68 207 -62 59 -207 75 -368 42z"/>
</g>
</svg>
